<?xml version="1.0" encoding="UTF-8"?>
<svg id="Livello_2" data-name="Livello 2" xmlns="http://www.w3.org/2000/svg" viewBox="0 0 110.94 50">
  <defs>
    <style>
      .cls-1 {
        fill: #fff;
      }
    </style>
  </defs>
  <g id="Livello_1-2" data-name="Livello 1">
    <g>
      <g>
        <path class="cls-1" d="m48.33,50h-23.69C11.05,50,0,38.78,0,25S11.05,0,24.64,0h23.69c.52,0,.95.43.95.96s-.42.96-.95.96h-23.69C12.1,1.92,1.89,12.27,1.89,25s10.2,23.08,22.74,23.08h23.69c.52,0,.95.43.95.96s-.42.96-.95.96"/>
        <path class="cls-1" d="m48.33,9.62h-23.69c-8.36,0-15.16,6.9-15.16,15.38s6.8,15.38,15.16,15.38h23.69c.52,0,.95-.43.95-.96s-.42-.96-.95-.96h-23.69c-7.32,0-13.27-6.04-13.27-13.46s5.95-13.46,13.27-13.46h23.69c.52,0,.95-.43.95-.96s-.42-.96-.95-.96"/>
      </g>
      <g>
        <g>
          <path class="cls-1" d="m60.94,48.69v-23.69c0-13.58,11.22-24.64,25-24.64,13.78,0,25,11.05,25,24.64v23.69c0,.52-.43.95-.96.95s-.96-.42-.96-.95v-23.69c0-12.54-10.35-22.74-23.08-22.74-12.73,0-23.08,10.2-23.08,22.74v23.69c0,.52-.43.95-.96.95s-.96-.42-.96-.95"/>
          <path class="cls-1" d="m101.33,48.69v-23.69c0-8.36-6.9-15.16-15.38-15.16-8.48,0-15.38,6.8-15.38,15.16v23.69c0,.52.43.95.96.95s.96-.42.96-.95v-23.69c0-7.32,6.04-13.27,13.46-13.27,7.43,0,13.46,5.95,13.46,13.27v23.69c0,.52.43.95.96.95s.96-.42.96-.95"/>
        </g>
        <path class="cls-1" d="m94.21,31.66h-16.6c-.37,0-.66-.43-.66-.96s.3-.96.66-.96h16.6c.37,0,.66.43.66.96s-.3.96-.66.96"/>
      </g>
    </g>
  </g>
</svg>